<svg height="20" viewBox="0 0 121 20" fill="none" xmlns="http://www.w3.org/2000/svg" _ngcontent-mfo-c72="">
<path d="M14.5997 20L13.3795 18.461L8.70479 9.03986L13.0306 1.22935L14.0012 0H8.79954L8.85962 0.954362L5.29405 7.55864H4.60081V1.19469L5.19931 0H0L0.600809 1.19469V18.8053L0 20H5.19931L4.60081 18.8053V11.5586H5.24783L8.86193 19.0202L8.79954 20H14.5997Z" fill="white" _ngcontent-mfo-c72="" data-darkreader-inline-fill="" style="--darkreader-inline-fill:#e8e6e3;"/>
<path d="M18.7891 0L19.3899 1.19469V18.803L18.7891 19.9977H23.9884L23.3876 18.803V14.1421H24.7925L26.4679 18.7059L26.387 20H31.7873L30.729 18.4726L28.9219 13.8094L31.3876 11.3437V2.80069L28.5892 0H18.7891ZM23.3876 4H27.3876V10.1421H23.3876V4Z" fill="white" _ngcontent-mfo-c72="" data-darkreader-inline-fill="" style="--darkreader-inline-fill:#e8e6e3;"/>
<path d="M51.9727 20L51.4643 18.9001L46.7364 1.16233L47.1731 0H40.7722L41.2089 1.16233L36.481 18.9001L35.9727 20H40.9732L40.7398 18.5211L41.2482 16.5685H46.6994L47.2078 18.5211L46.9744 20H51.9727ZM42.2465 12.7302L43.9727 6.08666L45.6988 12.7302H42.2465Z" fill="white" _ngcontent-mfo-c72="" data-darkreader-inline-fill="" style="--darkreader-inline-fill:#e8e6e3;"/>
<path d="M111.739 20L111.141 18.8053V9.24552L115.34 20H120.141L119.541 18.8053V1.19469L120.141 0H114.94L115.541 1.19469V10.7591L111.34 0H106.54L107.141 1.19469V18.8053L106.54 20H111.739Z" fill="white" _ngcontent-mfo-c72="" data-darkreader-inline-fill="" style="--darkreader-inline-fill:#e8e6e3;"/>
<path d="M61.7052 20L61.1044 18.8053V12.0393H65.1044L66.306 12.6424V7.43616L65.1044 8.03928H61.1044V4H67.1055L68.3048 4.60081V0H56.5059L57.1044 1.19469V18.8053L56.5059 20H61.7052Z" fill="white" _ngcontent-mfo-c72="" data-darkreader-inline-fill="" style="--darkreader-inline-fill:#e8e6e3;"/>
<path d="M81.5226 20L80.9241 18.8053V4H84.1246L85.3239 4.60081V0H72.5312V4.60081L73.7306 4H76.9241V18.8053L76.3233 20H81.5226Z" fill="white" _ngcontent-mfo-c72="" data-darkreader-inline-fill="" style="--darkreader-inline-fill:#e8e6e3;"/>
<path d="M99.1287 20L101.927 17.2016V2.80069L99.1287 0H92.328L89.5273 2.80069V17.2016L92.3257 20H99.1287ZM93.5273 16V4H97.9271V16H93.5273Z" fill="white" _ngcontent-mfo-c72="" data-darkreader-inline-fill="" style="--darkreader-inline-fill:#e8e6e3;"/>
</svg>